<svg xmlns="http://www.w3.org/2000/svg" viewBox="0 0 64 64">
  <defs>
    <linearGradient id="bg" x1="0" y1="0" x2="1" y2="1">
      <stop offset="0" stop-color="#D4552A"/>
      <stop offset="1" stop-color="#B8441F"/>
    </linearGradient>
  </defs>
  <!-- 배경: 우리동네 accent 컬러 라운드 스퀘어 -->
  <rect width="64" height="64" rx="14" fill="url(#bg)"/>
  <!-- 집: 크림색 카드 컬러 -->
  <path d="M32 12 L54 30 L50 30 L50 50 A3 3 0 0 1 47 53 L17 53 A3 3 0 0 1 14 50 L14 30 L10 30 Z" fill="#FFFDF9"/>
  <!-- 지붕 처마 라인 -->
  <path d="M32 12 L54 30 L50 33 L32 18.5 L14 33 L10 30 Z" fill="#C99B3F"/>
  <!-- 문 -->
  <rect x="27" y="38" width="10" height="15" rx="4" fill="#D4552A"/>
  <!-- 하트 창문: 동네 사랑 -->
  <path d="M32 27.5 c1.2 -2.4 4.8 -2.4 4.8 0.4 c0 1.9 -2.9 4 -4.8 5.1 c-1.9 -1.1 -4.8 -3.2 -4.8 -5.1 c0 -2.8 3.6 -2.8 4.8 -0.4 Z" fill="#E0485A"/>
</svg>
